<svg xmlns="http://www.w3.org/2000/svg" width="52.555" height="76.676" viewBox="0 0 52.555 76.676">
  <path d="M540.4,1161.784c5.284,0,9.184-6.514,9.223-6.58a.4.4,0,0,1,.687.4c-.132.224-2.641,4.4-6.5,6.175h22.9a.4.4,0,1,1,0,.8h-22.9c3.857,1.776,6.367,5.951,6.5,6.175a.4.4,0,0,1-.687.4c-.039-.066-3.939-6.58-9.223-6.58a.4.4,0,0,1,0-.8Z" transform="translate(592.055 1231.184) rotate(180)" fill="#1d1d1d" stroke="#1d1d1d" stroke-width="1"/>
  <line y2="70" transform="translate(1)" fill="none" stroke="#1d1d1d" stroke-width="2"/>
  <line x1="45" transform="translate(1 69.086)" fill="none" stroke="#1d1d1d" stroke-width="2"/>
</svg>

